# xmcd
#
# Track frame offsets: 
#        150
#        19051
#        32205
#        45918
#        64758
#        82503
#        91670
#        99899
#        111407
#        125834
#        140190
#        157608
#        178938
#
# Disc length: 2593 seconds
#
# Revision: 0
# Processed by: cddbd v1.4b42PL1 Copyright (c) Steve Scherf et al.
# Submitted via: ExactAudioCopy v0.90a11
#
DISCID=9c0a1f0d
DTITLE=Roy Bookbinder - Travelin' Man
DYEAR=1900
DGENRE=
TTITLE0=Travelin' Man
TTITLE1=Delia
TTITLE2=Biscuts
TTITLE3=Statesboro Blues
TTITLE4=Weeping Willow Blues
TTITLE5=Cincinnati Flow Rag II
TTITLE6=Baby it Must Be Love
TTITLE7=Bye Bye Baby Blues
TTITLE8=Never Drive a Stranger
TTITLE9=That'll Never Happen No More
TTITLE10=Bad Luck Blues
TTITLE11=Mississippi Blues
TTITLE12=Candy Man
EXTD=
EXTT0=
EXTT1=
EXTT2=
EXTT3=
EXTT4=
EXTT5=
EXTT6=
EXTT7=
EXTT8=
EXTT9=
EXTT10=
EXTT11=
EXTT12=
PLAYORDER=
